Coordinates
version=1
nRows=18
nColumns=38
inDegrees=yes

Units are S.I. units (second, meters, Newtons, ...)
Angles are in degrees.

endheader
time	pelvis_tilt	pelvis_list	pelvis_rotation	pelvis_tx	pelvis_ty	pelvis_tz	hip_flexion_r	hip_adduction_r	hip_rotation_r	knee_angle_r	ankle_angle_r	subtalar_angle_r	mtp_angle_r	hip_flexion_l	hip_adduction_l	hip_rotation_l	knee_angle_l	ankle_angle_l	subtalar_angle_l	mtp_angle_l	lumbar_extension	lumbar_bending	lumbar_rotation	arm_flex_r	arm_add_r	arm_rot_r	elbow_flex_r	pro_sup_r	wrist_flex_r	wrist_dev_r	arm_flex_l	arm_add_l	arm_rot_l	elbow_flex_l	pro_sup_l	wrist_flex_l	wrist_dev_l
      3.05000000	     -1.35958889	     -1.10417200	      0.72006158	     -0.98772648	      0.92825151	     -0.20255658	      3.72258305	      4.35911243	     -6.59298367	    -17.48695422	      9.28373053	      2.82043841	      5.70288519	     26.26590566	      1.73062282	      3.69197618	    -48.43991429	      0.23759346	     -5.64133367	     19.49089590	     -7.35415606	      4.38210884	     -0.26736879	      0.04620360	    -21.34942025	     14.36568118	     31.49725430	     86.51662706	      0.00000000	      0.00000000	     -4.33371430	    -13.66407262	     17.56966468	     19.66509724	     85.94366927	      0.00000000	      0.00000000
      3.06000000	     -1.12845704	     -1.17620355	      0.83402334	     -0.97648366	      0.92771707	     -0.20256535	      2.33857582	      4.56867231	     -6.43788051	    -16.78747436	      9.57969242	      2.02023289	      5.68174900	     26.47697043	      1.65993324	      3.91187725	    -45.48604836	      0.26679310	     -7.17676942	     18.89153144	     -7.67025782	      4.46270865	     -0.07887296	      0.40253986	    -21.64903550	     14.69535884	     32.21426561	     86.51662706	      0.00000000	      0.00000000	     -4.39971773	    -13.61963171	     17.47647499	     19.44624887	     85.94366927	      0.00000000	      0.00000000
      3.07000000	     -0.90531521	     -1.18763521	      0.91052756	     -0.96509311	      0.92700409	     -0.20264095	      0.98522389	      4.67720946	     -6.34503348	    -16.17016840	      9.97203719	      1.66188729	      5.70112570	     26.58460697	      1.63460274	      4.11146896	    -42.38817708	      0.24976327	     -8.65464980	     17.91808860	     -7.96403413	      4.47620469	      0.11705493	      0.69411160	    -21.88415779	     14.68371062	     32.96293245	     86.51662706	      0.00000000	      0.00000000	     -4.46961041	    -13.58301418	     17.37385762	     19.21569874	     85.94366927	      0.00000000	      0.00000000
      3.08000000	     -0.69409836	     -1.16214679	      0.96737557	     -0.95357873	      0.92612701	     -0.20279116	     -0.33886017	      4.71928912	     -6.29226728	    -15.62420358	     10.43538431	      1.60457058	      5.75113991	     26.60667000	      1.63412375	      4.30929360	    -39.17741419	      0.22704556	     -9.99569379	     16.67220447	     -8.23287649	      4.44693814	      0.31340417	      0.92684666	    -22.06855641	     14.41025381	     33.73078028	     86.51662706	      0.00000000	      0.00000000	     -4.53733184	    -13.55017981	     17.27489144	     18.96594974	     85.94366927	      0.00000000	      0.00000000
      3.09000000	     -0.50089763	     -1.12570833	      1.02304429	     -0.94195685	      0.92509293	     -0.20301139	     -1.62970088	      4.73441193	     -6.25474486	    -15.13984797	     10.93866465	      1.68608963	      5.82198900	     26.56626890	      1.63548057	      4.52028202	    -35.89790820	      0.24352197	    -11.09598357	     15.28600688	     -8.47013855	      4.40178941	      0.50143921	      1.10763696	    -22.21740126	     13.96904011	     34.50155559	     86.51662706	      0.00000000	      0.00000000	     -4.59579481	    -13.51726202	     17.19621575	     18.68809375	     85.94366927	      0.00000000	      0.00000000
      3.10000000	     -0.33379153	     -1.09930960	      1.09089738	     -0.93023502	      0.92389837	     -0.20328803	     -2.87666040	      4.75729557	     -6.21152966	    -14.71272554	     11.45067378	      1.76265822	      5.90779063	     26.48815186	      1.61942475	      4.74616963	    -32.60228332	      0.33671227	    -11.84749487	     13.89894128	     -8.66510187	      4.36301016	      0.67268917	      1.24316061	    -22.34365320	     13.44833737	     35.25783195	     86.51662706	      0.00000000	      0.00000000	     -4.63847539	    -13.48141311	     17.15493790	     18.37389056	     85.94366927	      0.00000000	      0.00000000
      3.11000000	     -0.20194427	     -1.09512836	      1.17701922	     -0.91841120	      0.92253447	     -0.20361807	     -4.06408305	      4.81201654	     -6.14930450	    -14.34568859	     11.94324061	      1.73312260	      6.00909073	     26.39646954	      1.57415957	      4.97045746	    -29.34729447	      0.53081362	    -12.15730107	     12.63943761	     -8.80499917	      4.34459094	      0.82056853	      1.33935977	    -22.45653823	     12.91846224	     35.98305561	     86.51662706	      0.00000000	      0.00000000	     -4.66028752	    -13.44064234	     17.16634597	     18.01725927	     85.94366927	      0.00000000	      0.00000000
      3.12000000	     -0.11353922	     -1.11652013	      1.28107146	     -0.90647484	      0.92099744	     -0.20401226	     -5.17448590	      4.90884263	     -6.06338237	    -14.04830741	     12.39262495	      1.54894118	      6.13414776	     26.31323521	      1.49663415	      5.15910681	    -26.19010367	      0.83522667	    -11.96397549	     11.61158865	     -8.87840685	      4.35188584	      0.94150565	      1.40116890	    -22.56145761	     12.42653385	     36.66309711	     86.51662706	      0.00000000	      0.00000000	     -4.65790729	    -13.39331444	     17.24245247	     17.61524145	     85.94366927	      0.00000000	      0.00000000
      3.13000000	     -0.07358262	     -1.16092954	      1.39854568	     -0.89441765	      0.91930171	     -0.20448167	     -6.19245402	      5.04331965	     -5.95650341	    -13.83467778	     12.77978444	      1.21224627	      6.29916833	     26.25652297	      1.39186081	      5.26722927	    -23.18609874	      1.24536694	    -11.24954968	     10.88670622	     -8.87883310	      4.38345621	      1.03556497	      1.43223531	    -22.66059422	     11.99659493	     37.28727642	     86.51662706	      0.00000000	      0.00000000	     -4.62984350	    -13.33779357	     17.39130797	     17.16847016	     85.94366927	      0.00000000	      0.00000000
      3.14000000	     -0.08244542	     -1.22311444	      1.52277100	     -0.88224463	      0.91748829	     -0.20503771	     -7.10817594	      5.19859983	     -5.83626406	    -13.72046552	     13.09011942	      0.76519185	      6.52769614	     26.23802414	      1.27081066	      5.25047122	    -20.38885806	      1.74359002	    -10.04571692	     10.49936697	     -8.80732560	      4.43365443	      1.10650841	      1.43456499	    -22.75365108	     11.63336444	     37.84878119	     86.51662706	      0.00000000	      0.00000000	     -4.57654151	    -13.27245082	     17.61694378	     16.68115085	     85.94366927	      0.00000000	      0.00000000
      3.15000000	     -0.13517325	     -1.29695375	      1.64600678	     -0.86997596	      0.91561390	     -0.20569736	     -7.91982702	      5.35111756	     -5.71218372	    -13.72004680	     13.31327977	      0.27426878	      6.84935874	     26.26081593	      1.14762025	      5.07808901	    -17.85168971	      2.29904958	     -8.43363797	     10.44741220	     -8.67313065	      4.49479056	      1.16113313	      1.40817438	    -22.83849064	     11.32789404	     38.34442844	     86.51662706	      0.00000000	      0.00000000	     -4.50063773	    -13.19606626	     17.91975468	     16.16057665	     85.94366927	      0.00000000	      0.00000000
      3.16000000	     -0.22133965	     -1.37600660	      1.76007259	     -0.85762851	      0.91373006	     -0.20646852	     -8.63445644	      5.47759188	     -5.59332906	    -13.84426290	     13.44338927	     -0.18678215	      7.29813281	     26.31878586	      1.03670546	      4.74375929	    -15.62916977	      2.86664704	     -6.53743640	     10.69530603	     -8.49192130	      4.55843966	      1.20771498	      1.35093623	    -22.91166945	     11.06360344	     38.77382679	     86.51662706	      0.00000000	      0.00000000	     -4.40723608	    -13.10849074	     18.29710841	     15.61627453	     85.94366927	      0.00000000	      0.00000000
      3.17000000	     -0.32551116	     -1.45352538	      1.85733497	     -0.84518875	      0.91188297	     -0.20733327	     -9.26678809	      5.56069463	     -5.48712656	    -14.09868656	     13.47952554	     -0.55235932	      7.91020128	     26.39828489	      0.95034668	      4.27058987	    -13.77711502	      3.38633927	     -4.51209926	     11.18023461	     -8.28197516	      4.61605110	      1.25358372	      1.25889143	    -22.96888681	     10.82153297	     39.13813526	     86.51662706	      0.00000000	      0.00000000	     -4.30392693	    -13.01129695	     18.74397770	     15.05896588	     85.94366927	      0.00000000	      0.00000000
      3.18000000	     -0.42932661	     -1.52257309	      1.93261058	     -0.83261405	      0.91013142	     -0.20825643	     -9.83618949	      5.59144402	     -5.39956003	    -14.48243661	     13.42580955	     -0.77650175	      8.72139751	     26.48149388	      0.89756663	      3.70867617	    -12.34992800	      3.78467107	     -2.52704656	     11.82030035	     -8.05957951	      4.65908368	      1.30216214	      1.12721985	    -23.00536186	     10.58412004	     39.43870485	     86.51662706	      0.00000000	      0.00000000	     -4.20022106	    -12.90814730	     19.25343109	     14.49957106	     85.94366927	      0.00000000	      0.00000000
      3.19000000	     -0.51572775	     -1.57631474	      1.98599116	     -0.81985443	      0.90854646	     -0.20920731	    -10.36295306	      5.56786532	     -5.33633955	    -14.98816208	     13.29027370	     -0.83938060	      9.76421076	     26.55085688	      0.88510894	      3.12619083	    -11.39485518	      3.98039546	     -0.74721727	     12.52409957	     -7.83539299	      4.67858085	      1.35005410	      0.95175002	    -23.01615651	     10.33729705	     39.67588990	     86.51662706	      0.00000000	      0.00000000	     -4.10614348	    -12.80473383	     19.81687916	     13.94845986	     85.94366927	      0.00000000	      0.00000000
      3.20000000	     -0.57394062	     -1.60773108	      2.02569643	     -0.80686096	      0.90717002	     -0.21017414	    -10.86444500	      5.49113836	     -5.30417371	    -15.60372157	     13.08188218	     -0.74864520	     11.06438179	     26.59399849	      0.92072696	      2.59712512	    -10.94369754	      3.89534754	      0.68587339	     13.20085605	     -7.61326495	      4.66410685	      1.38505684	      0.73055990	    -22.99638418	     10.07112252	     39.84825780	     86.51662706	      0.00000000	      0.00000000	     -4.03002977	    -12.70823551	     20.42403906	     13.41505837	     85.94366927	      0.00000000	      0.00000000
      3.21000000	     -0.60277540	     -1.60821642	      2.06951391	     -0.79358817	      0.90595527	     -0.21116720	    -11.35121172	      5.36118054	     -5.31134097	    -16.31558653	     12.80567891	     -0.53628144	     12.63724137	     26.60821831	      1.01780186	      2.18952342	    -11.00379283	      3.47012730	      1.67028288	     13.77012968	     -7.39199692	      4.60240569	      1.38614707	      0.46507957	    -22.94119505	      9.77942058	     39.95233246	     86.51662706	      0.00000000	      0.00000000	     -3.97601740	    -12.62636926	     21.06266295	     12.90782357	     85.94366927	      0.00000000	      0.00000000
      3.22000000	     -0.60989562	     -1.56522508	      2.14365410	     -0.78002419	      0.90476386	     -0.21221737	    -11.82343423	      5.17338810	     -5.36716718	    -17.11366042	     12.45683534	     -0.25215889	     14.48409622	     26.60352931	      1.19879909	      1.95720689	    -11.55087653	      2.68160646	      2.15432193	     14.16996075	     -7.16896651	      4.47660006	      1.32617399	      0.16014460	    -22.84554850	      9.45899912	     39.98287768	     86.51662706	      0.00000000	      0.00000000	     -3.94213504	    -12.56628881	     21.71816575	     12.43452884	     85.94366927	      0.00000000	      0.00000000
